<mxfile host="app.diagrams.net" agent="Mozilla/5.0 (Windows NT 10.0; Win64; x64) AppleWebKit/537.36 (KHTML, like Gecko) Chrome/134.0.0.0 Safari/537.36 Edg/134.0.0.0" version="26.2.5">
  <diagram name="Página-1" id="y3tTOoesK3ZD8lasHL1p">
    <mxGraphModel dx="947" dy="419" grid="1" gridSize="10" guides="1" tooltips="1" connect="1" arrows="1" fold="1" page="1" pageScale="1" pageWidth="1169" pageHeight="827" math="0" shadow="0">
      <root>
        <mxCell id="0" />
        <mxCell id="1" parent="0" />
        <mxCell id="nbocXbp9xiqAsX3uc_sn-7" value="" style="triangle;whiteSpace=wrap;html=1;rotation=-90;fillColor=#A9C4EB;" vertex="1" parent="1">
          <mxGeometry x="625" y="353.5" width="190" height="171" as="geometry" />
        </mxCell>
        <mxCell id="nbocXbp9xiqAsX3uc_sn-3" value="" style="triangle;whiteSpace=wrap;html=1;rotation=-90;fillColor=#FFE599;" vertex="1" parent="1">
          <mxGeometry x="490.5" y="353.5" width="190" height="171" as="geometry" />
        </mxCell>
        <mxCell id="nbocXbp9xiqAsX3uc_sn-1" value="B1" style="rounded=1;whiteSpace=wrap;html=1;" vertex="1" parent="1">
          <mxGeometry x="565" y="333.5" width="40" height="20" as="geometry" />
        </mxCell>
        <mxCell id="nbocXbp9xiqAsX3uc_sn-2" value="B2" style="rounded=1;whiteSpace=wrap;html=1;" vertex="1" parent="1">
          <mxGeometry x="700" y="333.5" width="40" height="20" as="geometry" />
        </mxCell>
        <mxCell id="nbocXbp9xiqAsX3uc_sn-9" value="Entrar a zona de cobertura" style="shape=callout;whiteSpace=wrap;html=1;perimeter=calloutPerimeter;position2=1;base=10;size=26;position=0.82;" vertex="1" parent="1">
          <mxGeometry x="390" y="465" width="110" height="66" as="geometry" />
        </mxCell>
        <mxCell id="nbocXbp9xiqAsX3uc_sn-10" value="" style="endArrow=classic;startArrow=classic;html=1;rounded=0;" edge="1" parent="1">
          <mxGeometry width="50" height="50" relative="1" as="geometry">
            <mxPoint x="502" y="300" as="sourcePoint" />
            <mxPoint x="802" y="300" as="targetPoint" />
          </mxGeometry>
        </mxCell>
        <mxCell id="nbocXbp9xiqAsX3uc_sn-11" value="Zona de cobertura" style="text;html=1;align=center;verticalAlign=middle;whiteSpace=wrap;rounded=0;" vertex="1" parent="1">
          <mxGeometry x="605" y="270" width="120" height="30" as="geometry" />
        </mxCell>
        <mxCell id="nbocXbp9xiqAsX3uc_sn-12" value="Actualizar zona de cobertura" style="shape=callout;whiteSpace=wrap;html=1;perimeter=calloutPerimeter;position2=0.42;" vertex="1" parent="1">
          <mxGeometry x="620" y="430" width="120" height="66" as="geometry" />
        </mxCell>
        <mxCell id="nbocXbp9xiqAsX3uc_sn-15" value="Salir zona de cobertura" style="shape=callout;whiteSpace=wrap;html=1;perimeter=calloutPerimeter;position2=0.42;" vertex="1" parent="1">
          <mxGeometry x="870" y="469" width="120" height="66" as="geometry" />
        </mxCell>
        <mxCell id="nbocXbp9xiqAsX3uc_sn-19" value="" style="endArrow=none;dashed=1;html=1;rounded=0;exitX=0.003;exitY=0.001;exitDx=0;exitDy=0;exitPerimeter=0;" edge="1" parent="1" source="nbocXbp9xiqAsX3uc_sn-3">
          <mxGeometry width="50" height="50" relative="1" as="geometry">
            <mxPoint x="440.5" y="370" as="sourcePoint" />
            <mxPoint x="500" y="300" as="targetPoint" />
          </mxGeometry>
        </mxCell>
        <mxCell id="nbocXbp9xiqAsX3uc_sn-21" value="" style="endArrow=none;dashed=1;html=1;rounded=0;exitX=0.006;exitY=1.001;exitDx=0;exitDy=0;exitPerimeter=0;" edge="1" parent="1" source="nbocXbp9xiqAsX3uc_sn-7">
          <mxGeometry width="50" height="50" relative="1" as="geometry">
            <mxPoint x="780" y="400" as="sourcePoint" />
            <mxPoint x="806" y="300" as="targetPoint" />
          </mxGeometry>
        </mxCell>
        <mxCell id="nbocXbp9xiqAsX3uc_sn-22" value="" style="shape=flexArrow;endArrow=classic;html=1;rounded=0;width=21.142857142857142;endSize=6.634285714285714;fillColor=#EA6B66;" edge="1" parent="1">
          <mxGeometry width="50" height="50" relative="1" as="geometry">
            <mxPoint x="510" y="600" as="sourcePoint" />
            <mxPoint x="820" y="600" as="targetPoint" />
          </mxGeometry>
        </mxCell>
        <mxCell id="nbocXbp9xiqAsX3uc_sn-23" value="Dirección de tránsito" style="edgeLabel;html=1;align=center;verticalAlign=middle;resizable=0;points=[];fillColor=#EA6B66;" vertex="1" connectable="0" parent="nbocXbp9xiqAsX3uc_sn-22">
          <mxGeometry x="-0.0677" relative="1" as="geometry">
            <mxPoint y="-20" as="offset" />
          </mxGeometry>
        </mxCell>
        <mxCell id="nbocXbp9xiqAsX3uc_sn-24" value="" style="endArrow=classic;startArrow=classic;html=1;rounded=0;exitX=-0.005;exitY=1.013;exitDx=0;exitDy=0;exitPerimeter=0;entryX=0;entryY=0;entryDx=50.4;entryDy=66;entryPerimeter=0;" edge="1" parent="1" source="nbocXbp9xiqAsX3uc_sn-7" target="nbocXbp9xiqAsX3uc_sn-15">
          <mxGeometry width="50" height="50" relative="1" as="geometry">
            <mxPoint x="815" y="531" as="sourcePoint" />
            <mxPoint x="865" y="481" as="targetPoint" />
          </mxGeometry>
        </mxCell>
        <mxCell id="nbocXbp9xiqAsX3uc_sn-25" value="20 s" style="edgeLabel;html=1;align=center;verticalAlign=middle;resizable=0;points=[];" vertex="1" connectable="0" parent="nbocXbp9xiqAsX3uc_sn-24">
          <mxGeometry x="-0.0581" y="-1" relative="1" as="geometry">
            <mxPoint as="offset" />
          </mxGeometry>
        </mxCell>
      </root>
    </mxGraphModel>
  </diagram>
</mxfile>
